<svg width="200" height="34" viewBox="0 0 200 34" fill="none" xmlns="http://www.w3.org/2000/svg">
<path d="M15.424 31.32L12.96 23.22L6.144 23.22L3.68 31.32H0L9.552 2.1H13.568L23.12 31.32H15.424ZM9.552 7.74L7.52 13.98L11.616 13.98L9.552 7.74Z" fill="#F36424"/>
<path d="M43.049 31.32L38.185 18.06L33.321 31.32H29.129L35.913 13.62L31.049 2.1H35.657L38.185 9.18L40.713 2.1H45.321L40.457 13.62L47.241 31.32H43.049Z" fill="#F36424"/>
<path d="M59.9549 31.32L59.9549 2.1H63.6349V31.32H59.9549Z" fill="#F36424"/>
<path d="M78.6146 31.32L71.3826 2.1H75.5746L79.1266 18.3L82.6786 2.1H86.8706L79.6386 31.32H78.6146Z" fill="#F364_24"/>
<path d="M96.0689 31.32L96.0689 2.1H104.933C109.125 2.1 112.557 4.296 112.557 8.52C112.557 11.232 110.829 13.068 108.085 14.124L113.893 31.32H109.285L103.981 15.372H99.7889V31.32H96.0689ZM99.7889 11.916H104.205C106.517 11.916 108.829 10.476 108.829 8.316C108.829 6.228 106.621 4.956 104.205 4.956H99.7889V11.916Z" fill="#F36424"/>
<path d="M129.581 31.32L127.117 23.22L120.301 23.22L117.837 31.32H114.157L123.709 2.1H127.725L137.277 31.32H129.581ZM123.709 7.74L121.677 13.98L125.773 13.98L123.709 7.74Z" fill="#2A388F"/>
M148.887 31.32H145.167V2.1H148.887V31.32Z" fill="#2A388F"/>
<path d="M166.248 31.32L166.248 2.1H170.104L177.304 23.22V2.1H181.024V31.32H177.168L169.968 10.224V31.32H166.248Z" fill="#2A388F"/>
<path d="M199.117 31.32L199.117 2.1H202.837V31.32H199.117Z" fill="#2A388F"/>
<path d="M195.422 2.1V5.556C193.11 4.5 190.102 3.924 186.99 3.924C181.042 3.924 177.026 7.668 177.026 13.98C177.026 21.06 182.21 24.336 188.054 24.336C190.462 24.336 193.006 23.832 195.422 22.848V31.248C193.006 32.4 190.102 32.904 186.886 32.904C177.334 32.904 170.102 27.612 170.102 16.944C170.102 6.516 177.23 0 187.502 0C190.334 0 193.11 0.504 195.422 1.488V2.1Z" fill="#2A388F"/>
</svg>