<svg width="206" height="36" viewBox="0 0 206 36" fill="none" xmlns="http://www.w3.org/2000/svg">
<path d="M12.83 25.32L7.96 11.03H17.86L12.83 25.32Z" fill="#E2231A"></path>
<path d="M10.37 0C4.64 0 0 4.64 0 10.37V25.63C0 31.36 4.64 36 10.37 36H25.63C31.36 36 36 31.36 36 25.63V10.37C36 4.64 31.36 0 25.63 0H10.37ZM19.57 28H15.93L13.12 20.83H13.01L10.2 28H6.55L11.59 15.65L12.86 12.33C13.29 11.23 13.56 10.74 13.62 10.74C13.73 10.74 14.05 11.23 14.53 12.33L15.69 15.29L19.57 28Z" fill="#E2231A"></path>
<path d="M50.11 20.81V28H46.33V8H50.11V17.9H57.18V8H60.96V28H57.18V20.81H50.11Z" fill="#231F20"></path>
<path d="M66.42 21.05C66.42 24.99 69.11 28.24 73.34 28.24C77.57 28.24 80.26 24.99 80.26 21.05C80.26 17.11 77.57 13.86 73.34 13.86C69.11 13.86 66.42 17.11 66.42 21.05ZM76.6 21.05C76.6 23.36 75.25 25.43 73.34 25.43C71.43 25.43 70.08 23.36 70.08 21.05C70.08 18.74 71.43 16.67 73.34 16.67C75.25 16.67 76.6 18.74 76.6 21.05Z" fill="#231F20"></path>
<path d="M82.88 8H86.66V28H82.88V8Z" fill="#231F20"></path>
<path d="M90.39 8H94.17V18.14H101.13V8H104.91V28H101.13V20.96H94.17V28H90.39V8Z" fill="#231F20"></path>
<path d="M139.73 14.15V8H135.95V28H139.73V16.96L148.54 28H152.9L143.34 15.6L152.54 8H148.1L141.62 14.85C141.05 15.54 140.42 16.32 139.73 17.2V14.15Z" fill="#231F20"></path>
<path d="M123.63 28.12C127.35 28.12 130.29 26.69 132.36 24.1L130.05 21.68C128.55 23.59 126.54 24.89 124.23 24.89C120.35 24.89 117.6 22.37 117.6 18.02V8H121.38V17.79C121.38 20.37 122.54 22.08 124.35 22.08C125.99 22.08 127.29 21.2 127.92 19.82H128.03V8H131.81V21.17C131.81 24.05 130.05 26.06 127.35 27.26L129.21 29.72H124.92L123.63 28.12Z" fill="#231F20"></path>
<path d="M109.13 21.05C109.13 24.99 111.82 28.24 116.05 28.24C120.28 28.24 122.97 24.99 122.97 21.05C122.97 17.11 120.28 13.86 116.05 13.86C111.82 13.86 109.13 17.11 109.13 21.05ZM119.31 21.05C119.31 23.36 117.96 25.43 116.05 25.43C114.14 25.43 112.79 23.36 112.79 21.05C112.79 18.74 114.14 16.67 116.05 16.67C117.96 16.67 119.31 18.74 119.31 21.05Z" fill="#231F20"></path>
<path d="M155.03 8H158.81V28H155.03V8Z" fill="#231F20"></path>
<path d="M162.73 8H173.81L170.21 12.92H166.51L169.13 9.42H163.9L162.73 8Z" fill="#231F20"></path>
<path d="M168.42 28L173.81 20.37H170.38L167.35 24.65L168.42 28Z" fill="#231F20"></path>
<path d="M171.72 15.23L176.6 8H180.32L173.25 18.08V28H169.47V17.07L171.72 15.23Z" fill="#231F20"></path>
<path d="M184.95 14.15V8H181.17V28H184.95V16.96L193.76 28H198.12L188.56 15.6L197.76 8H193.32L186.84 14.85C186.27 15.54 185.64 16.32 184.95 17.2V14.15Z" fill="#231F20"></path>
<path d="M205.34 28H199.16L200.7 25.94H204.17L205.34 28Z" fill="#231F20"></path>
<path d="M201.27 19.35L198.6 15.84H204L201.27 19.35Z" fill="#231F20"></path>
</svg>