<svg xmlns="http://www.w3.org/2000/svg" width="40" height="40" viewBox="0 0 40 40" fill="none">
<circle cx="20" cy="20" r="20" fill="#E8F5E9"/>
<path d="M12.7812 11.25V13.5118H14.1287V25.2353H12.7812V27.5H25.9688V25.2353H24.6213V13.5118H25.9688V11.25H12.7812ZM20.375 22.9706C19.3333 22.9706 18.4454 22.6103 17.7112 21.8897C16.9771 21.1691 16.61 20.2941 16.61 19.2647C16.61 18.2353 16.9771 17.3529 17.7112 16.6176C18.4454 15.8824 19.3333 15.5147 20.375 15.5147C21.4167 15.5147 22.3046 15.8824 23.0388 16.6176C23.7729 17.3529 24.1399 18.2353 24.1399 19.2647C24.1399 20.2941 23.7729 21.1691 23.0388 21.8897C22.3046 22.6103 21.4167 22.9706 20.375 22.9706Z" fill="#34A853"/>
</svg>
