<svg width="40" height="40" viewBox="0 0 40 40" fill="none" xmlns="http://www.w3.org/2000/svg">
<g clip-path="url(#clip0_105_2)">
<path d="M19.9999 0C8.95421 0 0 8.95421 0 19.9999C0 31.0456 8.95421 39.9999 19.9999 39.9999C31.0456 39.9999 39.9999 31.0456 39.9999 19.9999C39.9999 8.95421 31.0456 0 19.9999 0ZM28.5356 29.6211L26.9696 31.1871L20.0116 24.2291L13.0536 31.1871L11.4876 29.6211L18.4456 22.6631L11.4876 15.7051L13.0536 14.1391L20.0116 21.0971L26.9696 14.1391L28.5356 15.7051L21.5776 22.6631L28.5356 29.6211Z" fill="#00833F"/>
<path d="M28.5356 29.6211L26.9696 31.1871L20.0116 24.2291L13.0536 31.1871L11.4876 29.6211L18.4456 22.6631L11.4876 15.7051L13.0536 14.1391L20.0116 21.0971L26.9696 14.1391L28.5356 15.7051L21.5776 22.6631L28.5356 29.6211Z" fill="url(#paint0_linear_105_2)"/>
</g>
<defs>
<linearGradient id="paint0_linear_105_2" x1="11.4876" y1="22.6631" x2="28.5356" y2="22.6631" gradientUnits="userSpaceOnUse">
<stop stop-color="white"/>
<stop offset="1" stop-color="white" stop-opacity="0.6"/>
</linearGradient>
<clipPath id="clip0_105_2">
<rect width="40" height="40" fill="white"/>
</clipPath>
</defs>
</svg>